Coordinates
nRows=5
nColumns=38

# SIMM Motion File Header:
name Coordinates
datacolumns 38
datarows 5
otherdata 1
range 2.14000000000000010000 2.14400000000000010000

Units are S.I. units (second, meters, Newtons, ...)
Angles are in degrees.

endheader
time	pelvis_tilt	pelvis_list	pelvis_rotation	pelvis_tx	pelvis_ty	pelvis_tz	hip_flexion_r	hip_adduction_r	hip_rotation_r	knee_angle_r	ankle_angle_r	subtalar_angle_r	mtp_angle_r	hip_flexion_l	hip_adduction_l	hip_rotation_l	knee_angle_l	ankle_angle_l	subtalar_angle_l	mtp_angle_l	lumbar_extension	lumbar_bending	lumbar_rotation	arm_flex_r	arm_add_r	arm_rot_r	elbow_flex_r	pro_sup_r	wrist_flex_r	wrist_dev_r	arm_flex_l	arm_add_l	arm_rot_l	elbow_flex_l	pro_sup_l	wrist_flex_l	wrist_dev_l
      2.14000000000000010000	    -14.46976642759137700000	      1.10326609269148300000	      0.66681659033610841000	      1.03618899184521030000	      1.03323330451945570000	     -0.35414202074510437000	      5.84483600726596730000	      1.94817705222543180000	      3.05189187126545840000	    -40.70318603532434300000	    -11.34246249914760300000	     -0.00000000000005261629	      0.00000000000007935621	     30.98653199585374900000	      4.99485117071618840000	      3.16161388976538580000	    -11.37362729082078200000	      3.84837684414945840000	      0.00000000000000338126	      0.00000000000003956000	      2.09559558923691650000	     -1.00049184166934420000	      9.96486754846880100000	    -20.13865325726214900000	    -19.16282440753225200000	      1.23465425838086950000	    116.80438294302154000000	    116.03593800911497000000	     -0.00000000000000531596	      0.00000000000001217777	    -40.34614520794499300000	     -9.97356298473367000000	    -14.17588190756364800000	    121.47091749557224000000	    101.93962034746440000000	      0.00000000000001339068	      0.00000000000001359457
      2.14100000000000000000	    -14.45622272164204200000	      1.05871225754938970000	      0.65033718080696556000	      1.03629214127476120000	      1.03268566345514000000	     -0.35410913435519614000	      5.93558138773203760000	      2.00685601747505430000	      3.11331476403053080000	    -41.06200210063678900000	    -11.21256595731251300000	     -0.00000000000005271243	      0.00000000000007953836	     30.98153409485885500000	      4.94372366675481880000	      3.10068887554878890000	    -11.43571098712125300000	      3.77150571086219030000	      0.00000000000000340195	      0.00000000000003971419	      2.09468075753174790000	     -0.96498927610800422000	      9.94983094026492590000	    -20.19438362744237000000	    -19.14351127470388300000	      1.18028152141098190000	    116.65246083969792000000	    116.05303080182199000000	     -0.00000000000000532840	      0.00000000000001227265	    -40.26669745876574800000	     -9.94713471244498490000	    -14.18451573941492000000	    121.45744351079146000000	    101.97410394923256000000	      0.00000000000001344060	      0.00000000000001365649
      2.14199999999999990000	    -14.44331172400916700000	      1.01396535926129490000	      0.63382552823499272000	      1.03639512495166210000	      1.03212707331931170000	     -0.35407610067243911000	      6.02829142236468660000	      2.06546759488355920000	      3.17251791817330140000	    -41.42248911538173000000	    -11.08186404091158100000	     -0.00000000000005280530	      0.00000000000007972007	     30.97877364746678500000	      4.89213078413559280000	      3.03692074248216450000	    -11.50594159868350300000	      3.69483539988665520000	      0.00000000000000342104	      0.00000000000003986763	      2.09475873683825990000	     -0.92925346377303775000	      9.93392430006964130000	    -20.25041832223874700000	    -19.12409702270767700000	      1.12552520414598710000	    116.49915489119569000000	    116.06871067288276000000	     -0.00000000000000534038	      0.00000000000001236826	    -40.18718955152297000000	     -9.92089078965641140000	    -14.19308271233369100000	    121.44301387961843000000	    102.00843635900104000000	      0.00000000000001349021	      0.00000000000001371762
      2.14299999999999980000	    -14.43315816756914700000	      0.96901090757201980000	      0.61730464505430116000	      1.03649644511717850000	      1.03155492629603240000	     -0.35404299840186942000	      6.12555288080008160000	      2.12395324863853710000	      3.22942041246188080000	    -41.78532204048439500000	    -10.95057356215445500000	     -0.00000000000005289429	      0.00000000000007990183	     30.98096769472434500000	      4.84007875610020300000	      2.96967951614134100000	    -11.58524071152678500000	      3.61023839289258320000	      0.00000000000000343334	      0.00000000000004001497	      2.09817958185127830000	     -0.89330733897834291000	      9.91712942586269900000	    -20.30704067151847200000	    -19.10452440967740600000	      1.07044404158588620000	    116.34437511882473000000	    116.08308077675953000000	     -0.00000000000000535150	      0.00000000000001246517	    -40.10793605968870400000	     -9.89486890016652860000	    -14.20164594127854600000	    121.42757880756115000000	    102.04261933646394000000	      0.00000000000001353970	      0.00000000000001377578
      2.14400000000000010000	    -14.42546921319704000000	      0.92395963469058484000	      0.60084185883521224000	      1.03659619580335630000	      1.03096968092632110000	     -0.35400998333490347000	      6.22697563074922660000	      2.18214380256843830000	      3.28391227746104120000	    -42.15038649094869100000	    -10.81889435866032300000	     -0.00000000000005297710	      0.00000000000008008418	     30.98778331462932200000	      4.78775272373570000000	      2.89920869539626480000	    -11.67366908801659000000	      3.52048062228335200000	      0.00000000000000344236	      0.00000000000004016695	      2.10457830973886440000	     -0.85727966655949384000	      9.89935152417868380000	    -20.36414104480078200000	    -19.08483562512255100000	      1.01510671737855660000	    116.18813185167650000000	    116.09615748133680000000	     -0.00000000000000536234	      0.00000000000001256186	    -40.02889197079909400000	     -9.86906455921348960000	    -14.21023484962475800000	    121.41118083897422000000	    102.07663424532316000000	      0.00000000000001358916	      0.00000000000001383192
